bicep_curl
version=1
nRows=454
nColumns=3
inDegrees=yes

# SIMM Motion File Header:
name bicep_curl
datacolumns 3
datarows 454
otherdata 1
range 0.5500 1.0030
endheader
time	/jointset/r_shoulder/r_shoulder_elev/value	/jointset/r_elbow/r_elbow_flex/value
0.5500	0.0000	64.3600
0.5510	0.0000	64.3600
0.5520	0.0000	64.3600
0.5530	0.0000	64.3600
0.5540	0.0000	64.3600
0.5550	0.0000	64.3600
0.5560	0.0000	64.3600
0.5570	0.0000	64.3600
0.5580	0.0000	64.3600
0.5590	0.0000	64.3600
0.5600	0.0000	64.3600
0.5610	0.0000	64.3600
0.5620	0.0000	64.3600
0.5630	0.0000	64.3600
0.5640	0.0000	64.3600
0.5650	0.0000	64.3600
0.5660	0.0000	64.3600
0.5670	0.0000	64.3600
0.5680	0.0000	64.3600
0.5690	0.0000	64.3600
0.5700	0.0000	64.3600
0.5710	0.0000	64.3600
0.5720	0.0000	64.3600
0.5730	0.0000	64.3600
0.5740	0.0000	64.3600
0.5750	0.0000	64.3600
0.5760	0.0000	64.3600
0.5770	0.0000	64.3600
0.5780	0.0000	64.3600
0.5790	0.0000	64.3600
0.5800	0.0000	64.3600
0.5810	0.0000	64.3600
0.5820	0.0000	64.3600
0.5830	0.0000	64.3600
0.5840	0.0000	64.3600
0.5850	0.0000	64.3600
0.5860	0.0000	64.3600
0.5870	0.0000	64.3600
0.5880	0.0000	64.3600
0.5890	0.0000	64.3600
0.5900	0.0000	64.3600
0.5910	0.0000	64.3600
0.5920	0.0000	64.3600
0.5930	0.0000	64.3600
0.5940	0.0000	64.3600
0.5950	0.0000	64.3600
0.5960	0.0000	64.3600
0.5970	0.0000	64.3600
0.5980	0.0000	64.3600
0.5990	0.0000	64.3600
0.6000	0.0000	64.3600
0.6010	0.0000	64.3600
0.6020	0.0000	64.3600
0.6030	0.0000	64.3600
0.6040	0.0000	64.3600
0.6050	0.0000	64.3600
0.6060	0.0000	64.3600
0.6070	0.0000	64.3600
0.6080	0.0000	64.3600
0.6090	0.0000	64.3600
0.6100	0.0000	64.3600
0.6110	0.0000	64.3600
0.6120	0.0000	64.3600
0.6130	0.0000	64.3600
0.6140	0.0000	64.3600
0.6150	0.0000	64.3600
0.6160	0.0000	64.3600
0.6170	0.0000	64.3600
0.6180	0.0000	64.3600
0.6190	0.0000	64.3600
0.6200	0.0000	64.3600
0.6210	0.0000	64.3600
0.6220	0.0000	64.3600
0.6230	0.0000	64.3600
0.6240	0.0000	64.3600
0.6250	0.0000	64.3600
0.6260	0.0000	64.3600
0.6270	0.0000	64.3600
0.6280	0.0000	64.3600
0.6290	0.0000	64.3600
0.6300	0.0000	64.3600
0.6310	0.0000	64.3600
0.6320	0.0000	64.3600
0.6330	0.0000	64.3600
0.6340	0.0000	64.3600
0.6350	0.0000	64.3600
0.6360	0.0000	64.3600
0.6370	0.0000	64.3600
0.6380	0.0000	64.3600
0.6390	0.0000	64.3600
0.6400	0.0000	64.3600
0.6410	0.0000	64.3600
0.6420	0.0000	64.3600
0.6430	0.0000	64.3600
0.6440	0.0000	64.3600
0.6450	0.0000	64.3600
0.6460	0.0000	64.3600
0.6470	0.0000	64.3600
0.6480	0.0000	64.3600
0.6490	0.0000	64.3600
0.6500	0.0000	64.3600
0.6510	0.0000	64.3600
0.6520	0.0000	64.3600
0.6530	0.0000	64.3600
0.6540	0.0000	64.3600
0.6550	0.0000	64.3600
0.6560	0.0000	64.3600
0.6570	0.0000	64.3600
0.6580	0.0000	64.3600
0.6590	0.0000	64.3600
0.6600	0.0000	64.3600
0.6610	0.0000	64.3600
0.6620	0.0000	64.3600
0.6630	0.0000	64.3600
0.6640	0.0000	64.3600
0.6650	0.0000	64.3600
0.6660	0.0000	64.3600
0.6670	0.0000	64.3600
0.6680	0.0000	64.3600
0.6690	0.0000	64.3600
0.6700	0.0000	64.3600
0.6710	0.0000	64.3600
0.6720	0.0000	64.3600
0.6730	0.0000	64.3600
0.6740	0.0000	64.3600
0.6750	0.0000	64.3600
0.6760	0.0000	64.3600
0.6770	0.0000	64.3600
0.6780	0.0000	64.3600
0.6790	0.0000	64.3600
0.6800	0.0000	64.3600
0.6810	0.0000	64.3600
0.6820	0.0000	64.3600
0.6830	0.0000	64.3600
0.6840	0.0000	64.3600
0.6850	0.0000	64.3600
0.6860	0.0000	64.3600
0.6870	0.0000	64.3600
0.6880	0.0000	64.3600
0.6890	0.0000	64.3600
0.6900	0.0000	64.3600
0.6910	0.0000	64.3600
0.6920	0.0000	64.3600
0.6930	0.0000	64.3600
0.6940	0.0000	64.3600
0.6950	0.0000	64.3600
0.6960	0.0000	64.3600
0.6970	0.0000	64.3600
0.6980	0.0000	64.3600
0.6990	0.0000	64.3600
0.7000	0.0000	64.3600
0.7010	0.0000	64.3600
0.7020	0.0000	64.3600
0.7030	0.0000	64.3600
0.7040	0.0000	64.3600
0.7050	0.0000	64.3600
0.7060	0.0000	64.3600
0.7070	0.0000	64.3600
0.7080	0.0000	64.3600
0.7090	0.0000	64.3600
0.7100	0.0000	64.3600
0.7110	0.0000	64.3600
0.7120	0.0000	64.3600
0.7130	0.0000	64.3600
0.7140	0.0000	64.3600
0.7150	0.0000	64.3600
0.7160	0.0000	64.3600
0.7170	0.0000	64.3600
0.7180	0.0000	64.3600
0.7190	0.0000	64.3600
0.7200	0.0000	64.3600
0.7210	0.0000	64.3600
0.7220	0.0000	64.3600
0.7230	0.0000	64.3600
0.7240	0.0000	64.3600
0.7250	0.0000	64.3600
0.7260	0.0000	64.3600
0.7270	0.0000	64.3600
0.7280	0.0000	64.3600
0.7290	0.0000	64.3600
0.7300	0.0000	64.3600
0.7310	0.0000	64.3600
0.7320	0.0000	64.3600
0.7330	0.0000	64.3600
0.7340	0.0000	64.3600
0.7350	0.0000	64.3600
0.7360	0.0000	64.3600
0.7370	0.0000	64.3600
0.7380	0.0000	64.3600
0.7390	0.0000	64.3600
0.7400	0.0000	64.3600
0.7410	0.0000	64.3600
0.7420	0.0000	64.3600
0.7430	0.0000	64.3600
0.7440	0.0000	64.3600
0.7450	0.0000	64.3600
0.7460	0.0000	64.3600
0.7470	0.0000	64.3585
0.7480	0.0000	64.3593
0.7490	0.0000	64.3622
0.7500	0.0000	64.3675
0.7510	0.0000	64.3749
0.7520	0.0000	64.3847
0.7530	0.0000	64.3967
0.7540	0.0000	64.4111
0.7550	0.0000	64.4278
0.7560	0.0000	64.4468
0.7570	0.0000	64.4681
0.7580	0.0000	64.4918
0.7590	0.0000	64.5179
0.7600	0.0000	64.5464
0.7610	0.0000	64.5773
0.7620	0.0000	64.6106
0.7630	0.0000	64.6464
0.7640	0.0000	64.6846
0.7650	0.0000	64.7252
0.7660	0.0000	64.7683
0.7670	0.0000	64.8140
0.7680	0.0000	64.8621
0.7690	0.0000	64.9127
0.7700	0.0000	64.9659
0.7710	0.0000	65.0217
0.7720	0.0000	65.0800
0.7730	0.0000	65.1408
0.7740	0.0000	65.2043
0.7750	0.0000	65.2704
0.7760	0.0000	65.3391
0.7770	0.0000	65.4104
0.7780	0.0000	65.4844
0.7790	0.0000	65.5610
0.7800	0.0000	65.6404
0.7810	0.0000	65.7224
0.7820	0.0000	65.8071
0.7830	0.0000	65.8946
0.7840	0.0000	65.9847
0.7850	0.0000	66.0777
0.7860	0.0000	66.1749
0.7870	0.0000	66.2726
0.7880	0.0000	66.3709
0.7890	0.0000	66.4698
0.7900	0.0000	66.5692
0.7910	0.0000	66.6692
0.7920	0.0000	66.7697
0.7930	0.0000	66.8708
0.7940	0.0000	66.9725
0.7950	0.0000	67.0747
0.7960	0.0000	67.1775
0.7970	0.0000	67.2809
0.7980	0.0000	67.3848
0.7990	0.0000	67.4893
0.8000	0.0000	67.5943
0.8010	0.0000	67.6999
0.8020	0.0000	67.8061
0.8030	0.0000	67.9128
0.8040	0.0000	68.0201
0.8050	0.0000	68.1280
0.8060	0.0000	68.2364
0.8070	0.0000	68.3453
0.8080	0.0000	68.4549
0.8090	0.0000	68.5650
0.8100	0.0000	68.6756
0.8110	0.0000	68.7868
0.8120	0.0000	68.8986
0.8130	0.0000	69.0109
0.8140	0.0000	69.1238
0.8150	0.0000	69.2373
0.8160	0.0000	69.3513
0.8170	0.0000	69.4659
0.8180	0.0000	69.5811
0.8190	0.0000	69.6968
0.8200	0.0000	69.8130
0.8210	0.0000	69.9299
0.8220	0.0000	70.0473
0.8230	0.0000	70.1652
0.8240	0.0000	70.2837
0.8250	0.0000	70.4028
0.8260	0.0000	70.5224
0.8270	0.0000	70.6426
0.8280	0.0000	70.7634
0.8290	0.0000	70.8847
0.8300	0.0000	71.0066
0.8310	0.0000	71.1290
0.8320	0.0000	71.2521
0.8330	0.0000	71.3756
0.8340	0.0000	71.4998
0.8350	0.0000	71.6244
0.8360	0.0000	71.7497
0.8370	0.0000	71.8755
0.8380	0.0000	72.0019
0.8390	0.0000	72.1288
0.8400	0.0000	72.2563
0.8410	0.0000	72.3844
0.8420	0.0000	72.5130
0.8430	0.0000	72.6422
0.8440	0.0000	72.7719
0.8450	0.0000	72.9022
0.8460	0.0000	73.0331
0.8470	0.0000	73.1645
0.8480	0.0000	73.2965
0.8490	0.0000	73.4291
0.8500	0.0000	73.5622
0.8510	0.0000	73.6958
0.8520	0.0000	73.8301
0.8530	0.0000	73.9649
0.8540	0.0000	74.1002
0.8550	0.0000	74.2362
0.8560	0.0000	74.3726
0.8570	0.0000	74.5097
0.8580	0.0000	74.6473
0.8590	0.0000	74.7854
0.8600	0.0000	74.9242
0.8610	0.0000	75.0635
0.8620	0.0000	75.2033
0.8630	0.0000	75.3437
0.8640	0.0000	75.4847
0.8650	0.0000	75.6262
0.8660	0.0000	75.7683
0.8670	0.0000	75.9110
0.8680	0.0000	76.0542
0.8690	0.0000	76.1980
0.8700	0.0000	76.3423
0.8710	0.0000	76.4872
0.8720	0.0000	76.6327
0.8730	0.0000	76.7787
0.8740	0.0000	76.9253
0.8750	0.0000	77.0724
0.8760	0.0000	77.2202
0.8770	0.0000	77.3684
0.8780	0.0000	77.5173
0.8790	0.0000	77.6667
0.8800	0.0000	77.8166
0.8810	0.0000	77.9671
0.8820	0.0000	78.1182
0.8830	0.0000	78.2698
0.8840	0.0000	78.4220
0.8850	0.0000	78.5748
0.8860	0.0000	78.7281
0.8870	0.0000	78.8820
0.8880	0.0000	79.0365
0.8890	0.0000	79.1915
0.8900	0.0000	79.3470
0.8910	0.0000	79.5032
0.8920	0.0000	79.6599
0.8930	0.0000	79.8171
0.8940	0.0000	79.9749
0.8950	0.0000	80.1333
0.8960	0.0000	80.2923
0.8970	0.0000	80.4518
0.8980	0.0000	80.6118
0.8990	0.0000	80.7724
0.9000	0.0000	80.9336
0.9010	0.0000	81.0954
0.9020	0.0000	81.2577
0.9030	0.0000	81.4205
0.9040	0.0000	81.5840
0.9050	0.0000	81.7480
0.9060	0.0000	81.9125
0.9070	0.0000	82.0776
0.9080	0.0000	82.2433
0.9090	0.0000	82.4096
0.9100	0.0000	82.5764
0.9110	0.0000	82.7437
0.9120	0.0000	82.9116
0.9130	0.0000	83.0801
0.9140	0.0000	83.2492
0.9150	0.0000	83.4188
0.9160	0.0000	83.5889
0.9170	0.0000	83.7597
0.9180	0.0000	83.9310
0.9190	0.0000	84.1028
0.9200	0.0000	84.2752
0.9210	0.0000	84.4482
0.9220	0.0000	84.6217
0.9230	0.0000	84.7958
0.9240	0.0000	84.9705
0.9250	0.0000	85.1457
0.9260	0.0000	85.3215
0.9270	0.0000	85.4978
0.9280	0.0000	85.6747
0.9290	0.0000	85.8522
0.9300	0.0000	86.0302
0.9310	0.0000	86.2088
0.9320	0.0000	86.3880
0.9330	0.0000	86.5677
0.9340	0.0000	86.7480
0.9350	0.0000	86.9288
0.9360	0.0000	87.1102
0.9370	0.0000	87.2921
0.9380	0.0000	87.4747
0.9390	0.0000	87.6577
0.9400	0.0000	87.8414
0.9410	0.0000	88.0256
0.9420	0.0000	88.2104
0.9430	0.0000	88.3957
0.9440	0.0000	88.5816
0.9450	0.0000	88.7680
0.9460	0.0000	88.9550
0.9470	0.0000	89.1426
0.9480	0.0000	89.3307
0.9490	0.0000	89.5194
0.9500	0.0000	89.7087
0.9510	0.0000	89.8985
0.9520	0.0000	90.0889
0.9530	0.0000	90.2798
0.9540	0.0000	90.4713
0.9550	0.0000	90.6634
0.9560	0.0000	90.8560
0.9570	0.0000	91.0492
0.9580	0.0000	91.2430
0.9590	0.0000	91.4373
0.9600	0.0000	91.6321
0.9610	0.0000	91.8276
0.9620	0.0000	92.0236
0.9630	0.0000	92.2201
0.9640	0.0000	92.4172
0.9650	0.0000	92.6149
0.9660	0.0000	92.8132
0.9670	0.0000	93.0120
0.9680	0.0000	93.2113
0.9690	0.0000	93.4112
0.9700	0.0000	93.6117
0.9710	0.0000	93.8128
0.9720	0.0000	94.0144
0.9730	0.0000	94.2166
0.9740	0.0000	94.4193
0.9750	0.0000	94.6226
0.9760	0.0000	94.8264
0.9770	0.0000	95.0308
0.9780	0.0000	95.2358
0.9790	0.0000	95.4414
0.9800	0.0000	95.6475
0.9810	0.0000	95.8541
0.9820	0.0000	96.0613
0.9830	0.0000	96.2691
0.9840	0.0000	96.4775
0.9850	0.0000	96.6864
0.9860	0.0000	96.8959
0.9870	0.0000	97.1059
0.9880	0.0000	97.3165
0.9890	0.0000	97.5276
0.9900	0.0000	97.7393
0.9910	0.0000	97.9516
0.9920	0.0000	98.1645
0.9930	0.0000	98.3779
0.9940	0.0000	98.5918
0.9950	0.0000	98.8063
0.9960	0.0000	99.0214
0.9970	0.0000	99.2371
0.9980	0.0000	99.4533
0.9990	0.0000	99.6700
1.0000	0.0000	99.8874
1.0010	0.0000	100.1053
1.0020	0.0000	100.3237
1.0030	0.0000	100.5427
